# xmcd
#
# Track frame offsets:
#	150
#	33214
#	49809
#
# Disc length: 927 seconds
#
# Revision: 0
# Processed by: cddbd v1.5.2PL0 Copyright (c) Steve Scherf et al.
# Submitted via: EasyCDDAExtractor 10.0.2.1
#
DISCID=1c039d03
DTITLE=Various Artist - Sakara Tour 06 - Club Teatria, Oulu 10.11.2006
DYEAR=1900
DGENRE=
TTITLE0=Stam1na - Likainen Parketti
TTITLE1=Rytmihäiriö - Ei Mitenkään
TTITLE2=Mokoma - Kasvot Kohti Itää
EXTD=
EXTT0=
EXTT1=
EXTT2=
PLAYORDER=
